# xmcd
#
# Track frame offsets:
#	150
#	10462
#	23122
#	40448
#	53956
#	66414
#	77478
#	90254
#	103096
#	119875
#	135396
#	152281
#	164065
#	178765
#	193046
#	208938
#	222597
#	233797
#	247523
#	259936
#	271152
#	284502
#
# Disc length: 4014 seconds
#
# Revision: 5
# Processed by: cddbd v1.5.2PL0 Copyright (c) Steve Scherf et al.
# Submitted via: EasyCDDAExtractor 15.3.0.1
#
DISCID=420fac16
DTITLE=Cher - The Best Of Cher - The Imperial Recordings - 1965-1968 - CD 2
DYEAR=2007
DGENRE=Pop
TTITLE0=The Twelfth Of Never
TTITLE1=You Don't Have To Say You Love Me
TTITLE2=I Feel Something In The Air (Magic In The Air)
TTITLE3=Will You Still Love Me Tomorrow
TTITLE4=Until It's Time For You To Go
TTITLE5=Homeward Bound
TTITLE6=I Want You
TTITLE7=Alfie
TTITLE8=You Better Sit Down Kids
TTITLE9=Mama (When My Dollies Have Babies)
TTITLE10=Behind The Door
TTITLE11=Sing For Your Supper
TTITLE12=I Will Wait For You
TTITLE13=The Times They Are A Changin'
TTITLE14=Carnival
TTITLE15=It All Adds Up Now
TTITLE16=Reason To Believe
TTITLE17=I Wasn't Ready
TTITLE18=Take Me For A Little While
TTITLE19=The Impossible Dream
TTITLE20=The Click Song
TTITLE21=Song Called Children
EXTD=
EXTT0=
EXTT1=
EXTT2=
EXTT3=
EXTT4=
EXTT5=
EXTT6=
EXTT7=
EXTT8=
EXTT9=
EXTT10=
EXTT11=
EXTT12=
EXTT13=
EXTT14=
EXTT15=
EXTT16=
EXTT17=
EXTT18=
EXTT19=
EXTT20=
EXTT21=
PLAYORDER=
